<?xml version="1.0" encoding="UTF-8" standalone="no"?>
<svg
   width="256"
   height="256"
   version="1.1"
   id="svg1"
   sodipodi:docname="Folder-full.svg"
   inkscape:version="1.3.2 (091e20e, 2023-11-25, custom)"
   xml:space="preserve"
   xmlns:inkscape="http://www.inkscape.org/namespaces/inkscape"
   xmlns:sodipodi="http://sodipodi.sourceforge.net/DTD/sodipodi-0.dtd"
   xmlns:xlink="http://www.w3.org/1999/xlink"
   xmlns="http://www.w3.org/2000/svg"
   xmlns:svg="http://www.w3.org/2000/svg"><defs
     id="defs1"><linearGradient
       id="linearGradient148"
       inkscape:collect="always"><stop
         style="stop-color:#d6d6d6;stop-opacity:1;"
         offset="0.42554238"
         id="stop147" /><stop
         style="stop-color:#b8b8b8;stop-opacity:1;"
         offset="0.84112149"
         id="stop148" /></linearGradient><linearGradient
       id="linearGradient146"
       inkscape:collect="always"><stop
         style="stop-color:#ffffff;stop-opacity:1;"
         offset="0.21228305"
         id="stop145" /><stop
         style="stop-color:#e7e7e7;stop-opacity:1;"
         offset="0.71028036"
         id="stop146" /></linearGradient><inkscape:perspective
       sodipodi:type="inkscape:persp3d"
       inkscape:vp_x="2.25 : 261.375 : 1"
       inkscape:vp_y="0 : 1000 : 0"
       inkscape:vp_z="61.5625 : 252.1875 : 1"
       inkscape:persp3d-origin="17.5 : 232.66667 : 1"
       id="perspective132" /><linearGradient
       id="linearGradient84"
       inkscape:collect="always"><stop
         style="stop-color:#4787ce;stop-opacity:1;"
         offset="0"
         id="stop84" /><stop
         style="stop-color:#1764b2;stop-opacity:1;"
         offset="0.93717277"
         id="stop83" /></linearGradient><linearGradient
       id="linearGradient62"
       inkscape:collect="always"><stop
         style="stop-color:#acacac;stop-opacity:1;"
         offset="0"
         id="stop62" /><stop
         style="stop-color:#6e6e6e;stop-opacity:1;"
         offset="1"
         id="stop63" /></linearGradient><linearGradient
       id="linearGradient13"
       inkscape:collect="always"><stop
         style="stop-color:#ffffff;stop-opacity:1;"
         offset="0.22687609"
         id="stop13" /><stop
         style="stop-color:#f2f2f2;stop-opacity:1;"
         offset="1"
         id="stop14" /></linearGradient><linearGradient
       id="linearGradient6"
       inkscape:collect="always"><stop
         style="stop-color:#cf8d00;stop-opacity:1;"
         offset="0"
         id="stop6" /><stop
         style="stop-color:#edbb42;stop-opacity:1;"
         offset="1"
         id="stop7" /></linearGradient><linearGradient
       id="linearGradient15"
       inkscape:collect="always"><stop
         style="stop-color:#fec52d;stop-opacity:1;"
         offset="0.15780142"
         id="stop15" /><stop
         style="stop-color:#ffd759;stop-opacity:1;"
         offset="1"
         id="stop16" /></linearGradient><pattern
       id="EMFhbasepattern"
       patternUnits="userSpaceOnUse"
       width="6"
       height="6"
       x="0"
       y="0" /><pattern
       id="EMFhbasepattern-7"
       patternUnits="userSpaceOnUse"
       width="6"
       height="6"
       x="0"
       y="0" /><pattern
       id="EMFhbasepattern-8"
       patternUnits="userSpaceOnUse"
       width="6"
       height="6"
       x="0"
       y="0" /><linearGradient
       inkscape:collect="always"
       xlink:href="#linearGradient13"
       id="linearGradient14"
       x1="17.5"
       y1="11.015828"
       x2="17.5"
       y2="26.046673"
       gradientUnits="userSpaceOnUse"
       gradientTransform="translate(32.75,-7.25)" /><linearGradient
       inkscape:collect="always"
       xlink:href="#linearGradient62"
       id="linearGradient63"
       x1="39.34375"
       y1="11.482422"
       x2="61.15625"
       y2="11.482422"
       gradientUnits="userSpaceOnUse"
       gradientTransform="translate(-0.92807765,-0.2011717)" /><linearGradient
       inkscape:collect="always"
       xlink:href="#linearGradient84"
       id="linearGradient79"
       gradientUnits="userSpaceOnUse"
       gradientTransform="matrix(0.40073848,0,0,0.40073848,50.745737,1.685143)"
       x1="17.5"
       y1="11.015828"
       x2="17.5"
       y2="26.046673" /><linearGradient
       inkscape:collect="always"
       xlink:href="#linearGradient148"
       id="linearGradient82"
       gradientUnits="userSpaceOnUse"
       gradientTransform="matrix(0.80445419,0,0,0.80445419,13.569085,2.37061)"
       x1="53.427734"
       y1="10.389066"
       x2="60.365234"
       y2="10.389066" /><linearGradient
       inkscape:collect="always"
       xlink:href="#linearGradient146"
       id="linearGradient83"
       gradientUnits="userSpaceOnUse"
       gradientTransform="translate(-0.34723497)"
       x1="53.427734"
       y1="10.389066"
       x2="60.365234"
       y2="10.389066" /><linearGradient
       inkscape:collect="always"
       xlink:href="#linearGradient15"
       id="linearGradient229"
       gradientUnits="userSpaceOnUse"
       gradientTransform="matrix(6.4872244,0,-2.0071542,6.4872244,-280.592,-24.364876)"
       x1="68.059029"
       y1="34.117901"
       x2="68.059029"
       y2="12.925383" /><pattern
       id="EMFhbasepattern-9"
       patternUnits="userSpaceOnUse"
       width="6"
       height="6"
       x="0"
       y="0" /><pattern
       id="EMFhbasepattern-7-1"
       patternUnits="userSpaceOnUse"
       width="6"
       height="6"
       x="0"
       y="0" /><pattern
       id="EMFhbasepattern-8-3"
       patternUnits="userSpaceOnUse"
       width="6"
       height="6"
       x="0"
       y="0" /><linearGradient
       inkscape:collect="always"
       xlink:href="#linearGradient6"
       id="linearGradient7-6"
       x1="8.2125044"
       y1="6.9139805"
       x2="8.3114433"
       y2="-1.6636924"
       gradientUnits="userSpaceOnUse"
       gradientTransform="matrix(4.9696487,0,0,4.9696487,11.444097,3.8902057)" /></defs><sodipodi:namedview
     id="namedview1"
     pagecolor="#ffffff"
     bordercolor="#ffffff"
     borderopacity="0"
     inkscape:showpageshadow="2"
     inkscape:pageopacity="0.0"
     inkscape:pagecheckerboard="0"
     inkscape:deskcolor="#d1d1d1"
     showguides="true"
     inkscape:zoom="1"
     inkscape:cx="-65.499997"
     inkscape:cy="-47.499998"
     inkscape:window-width="1920"
     inkscape:window-height="1051"
     inkscape:window-x="-9"
     inkscape:window-y="-9"
     inkscape:window-maximized="1"
     inkscape:current-layer="svg1"
     showgrid="false"><inkscape:grid
       id="grid2"
       units="px"
       originx="0"
       originy="0"
       spacingx="1"
       spacingy="1"
       empcolor="#0099e5"
       empopacity="0.30196078"
       color="#0099e5"
       opacity="0.14901961"
       empspacing="5"
       dotted="false"
       gridanglex="30"
       gridanglez="30"
       visible="false" /></sodipodi:namedview><!-- SVG content goes here --><g
     id="g75"
     inkscape:label="Folder"
     transform="translate(25.879604,53.673151)"><path
       d="m 19.853054,6.0683924 c -2.667119,0 -4.813576,2.1464555 -4.813576,4.8135756 v 16.549769 6.004562 103.355421 c 0,2.92525 2.347351,5.285 5.272603,5.285 H 179.30895 c 2.92526,0 5.27261,-2.35975 5.27261,-5.285 V 27.431737 c 0,-2.925251 -2.34735,-5.272603 -5.27261,-5.272603 h -77.87323 c 0,-0.954723 -0.36111,-1.911845 -1.09174,-2.642504 L 87.987481,7.1601313 C 87.288959,6.4616026 86.380187,6.1078977 85.46904,6.0807984 c -0.130151,-0.00387 -0.254585,0.00294 -0.384609,0.012386 -0.13752,-0.011942 -0.281264,-0.024836 -0.421832,-0.024836 z"
       style="fill:url(#linearGradient7-6);stroke-width:16.2568;stroke-linejoin:round"
       id="path3"
       inkscape:label="Back Face" /><g
       id="g74"
       transform="matrix(6.3519352,0,0,6.3519352,-219.37421,7.0236542)"
       inkscape:label="Document"><rect
         style="fill:url(#linearGradient14);stroke:#000000;stroke-width:0;stroke-linecap:round;stroke-linejoin:round;stroke-dasharray:none"
         id="rect13"
         width="25.572266"
         height="15.030844"
         x="37.463867"
         y="3.7658281"
         ry="0.84321821"
         inkscape:label="Paper" /><path
         d="m 39.025761,5.8974618 c -0.337586,0 -0.609375,0.271789 -0.609375,0.609375 0,0.3375859 0.271789,0.609375 0.609375,0.609375 h 11.046875 c 0.337586,0 0.609375,-0.2717891 0.609375,-0.609375 0,-0.337586 -0.271789,-0.609375 -0.609375,-0.609375 z m 0,2.3867187 c -0.337586,0 -0.609375,0.2717891 -0.609375,0.609375 0,0.337586 0.271789,0.609375 0.609375,0.609375 h 11.046875 c 0.337586,0 0.609375,-0.271789 0.609375,-0.609375 0,-0.3375859 -0.271789,-0.609375 -0.609375,-0.609375 z m 0,2.3867185 c -0.337587,0 -0.609375,0.271787 -0.609375,0.609375 0,0.337588 0.271788,0.609375 0.609375,0.609375 h 11.046875 c 0.337588,0 0.609375,-0.271787 0.609375,-0.609375 0,-0.337588 -0.271787,-0.609375 -0.609375,-0.609375 z m 0.03125,2.386719 c -0.354985,0 -0.640625,0.271786 -0.640625,0.609375 0,0.337589 0.28564,0.609375 0.640625,0.609375 h 21.654297 c 0.354984,0 0.640625,-0.271786 0.640625,-0.609375 0,-0.337589 -0.285641,-0.609375 -0.640625,-0.609375 z m 0,2.386719 c -0.354987,0 -0.640625,0.271785 -0.640625,0.609375 0,0.337591 0.285638,0.609375 0.640625,0.609375 h 21.654297 c 0.354987,0 0.640625,-0.271784 0.640625,-0.609375 0,-0.33759 -0.285638,-0.609375 -0.640625,-0.609375 z"
         style="fill:url(#linearGradient63);stroke:#000000;stroke-width:0;stroke-linecap:round;stroke-linejoin:round"
         id="path233"
         inkscape:label="text" /><g
         id="g78"
         inkscape:label="Photo"
         transform="matrix(0.99256757,0,0,0.99256757,-1.0623164,-0.15583676)"><rect
           style="fill:url(#linearGradient79);stroke:#000000;stroke-width:0;stroke-linecap:round;stroke-linejoin:round;stroke-dasharray:none"
           id="rect75"
           width="10.247791"
           height="6.0234375"
           x="52.634766"
           y="6.0996094"
           ry="0.33791"
           inkscape:label="Background" /><g
           id="g83"
           inkscape:label="Main"
           transform="translate(-0.07084107)"><circle
             style="fill:#ffffff;fill-opacity:1;stroke:#000000;stroke-width:0;stroke-linecap:round;stroke-linejoin:round;stroke-dasharray:none;stroke-opacity:1"
             id="circle76"
             cx="54.088978"
             cy="7.2273788"
             r="0.44194174"
             inkscape:label="Sun" /><path
             d="m 62.486616,12.123047 c 0,0 -1.837312,-1.829908 -2.547705,-2.5410159 -0.332248,-0.3322477 -0.866971,-0.3322477 -1.199219,0 l -0.414063,0.4160156 1.38086,1.3808593 c 0.206506,0.206506 0.310547,0.47464 0.310547,0.744141 z"
             style="fill:url(#linearGradient82);stroke:#000000;stroke-width:0;stroke-linecap:round;stroke-linejoin:round"
             id="path77"
             inkscape:label="Back mountain"
             sodipodi:nodetypes="ccccscc" /><path
             d="m 56.546333,8.6542967 c -0.269306,0 -0.537637,0.1040421 -0.744141,0.3105469 l -2.861568,3.1423734 c 2.358786,0.01654 4.717588,0.01583 7.076412,0.01583 0,-0.2695 -0.104042,-0.537635 -0.310547,-0.744141 L 58.325629,9.9980467 57.292426,8.9648436 C 57.085921,8.7583388 56.815638,8.6542967 56.546333,8.6542967 Z"
             style="fill:url(#linearGradient83);stroke:#000000;stroke-width:0;stroke-linecap:round;stroke-linejoin:round"
             id="path78"
             inkscape:label="Front mountain"
             sodipodi:nodetypes="scccccss" /></g></g></g><path
       d="m 133.10761,73.259674 -44.612419,0.0127 c -2.133418,0 -3.159738,1.614693 -3.957554,2.704533 l -9.230156,12.617027 c -0.596828,0.815271 -1.585214,1.167238 -2.667317,1.091739 -0.137393,0.01143 -0.278342,0.02477 -0.421832,0.02477 H 70.295385 34.367251 6.0316622 c -2.1344344,0 -4.3936716,1.981925 -3.8210828,4.118836 l 0.7939919,2.97747 1.1661708,4.366951 5.2229803,19.49002 h 0.012704 l 3.4240936,12.79071 1.004895,3.73425 c 0.705935,2.6346 3.151125,4.80564 5.768846,5.285 0.02033,0.004 0.04192,-0.004 0.06225,0 0.314993,0.0642 0.640301,0.11167 0.99249,0.11167 h 158.761159 0.0127 c 0.33221,-0.001 0.66177,-0.0527 0.99249,-0.11167 0.0203,-0.004 0.0419,0.004 0.0622,0 2.61312,-0.48395 5.06401,-2.65451 5.76885,-5.285 l 1.00489,-3.73425 3.4241,-12.79071 5.22297,-19.49002 1.16618,-4.366951 4.85079,-18.150159 c 0.80049,-2.98743 -0.93286,-5.384263 -3.92034,-5.384256 h -26.9585 l -0.79399,-0.0127 -36.34994,0.0127 h -0.14889 z"
       style="display:inline;fill:url(#linearGradient229);stroke-width:6.50762"
       id="path235"
       inkscape:label="Front Face" /></g></svg>
